{
  "source": "C:\\Users\\Peter\\Desktop\\stuff\\MIUN\\quantitative_research\\video_compression\\videos\\BVI-HD\\BVI-HD_CDVL_videos\\ORIG\\TreeTrunk_1920x1080_50fps.mp4",
  "output": "C:\\Users\\Peter\\Desktop\\stuff\\MIUN\\quantitative_research\\video_compression\\compressed_videos\\BVI-HD\\av1\\1\\TreeTrunk_1920x1080_50fps_av1.mkv",
  "codec": "av1",
  "ok": "Input #0, mov,mp4,m4a,3gp,3g2,mj2, from 'C:\\Users\\Peter\\Desktop\\stuff\\MIUN\\quantitative_research\\video_compression\\videos\\BVI-HD\\BVI-HD_CDVL_videos\\ORIG\\TreeTrunk_1920x1080_50fps.mp4':\n  Metadata:\n    major_brand     : isom\n    minor_version   : 512\n    compatible_brands: isomiso2avc1mp41\n    encoder         : Lavf54.28.101\n  Duration: 00:00:05.00, start: 0.000000, bitrate: 622415 kb/s\n  Stream #0:0[0x1](und): Video: h264 (High 4:4:4 Predictive) (avc1 / 0x31637661), yuv420p(progressive), 1920x1080, 622410 kb/s, 50 fps, 50 tbr, 50 tbn (default)\n    Metadata:\n      handler_name    : VideoHandler\n      vendor_id       : [0][0][0][0]\n[out#0/matroska @ 000001feea59f0c0] Codec AVOption b:a (set bitrate (in bits/s)) has not been used for any stream. The most likely reason is either wrong type (e.g. a video option with no video streams) or that it is a private option of some decoder which was not actually used for any stream.\nStream mapping:\n  Stream #0:0 -> #0:0 (h264 (native) -> av1 (libsvtav1))\nPress [q] to stop, [?] for help\nSvt[info]: -------------------------------------------\nSvt[info]: SVT [version]:\tSVT-AV1 Encoder Lib v3.1.0-19-g6ecfe8ec\nSvt[info]: SVT [build]  :\tGCC 15.2.0\t 64 bit\nSvt[info]: LIB Build date: Aug 17 2025 11:37:13\nSvt[info]: -------------------------------------------\nSvt[info]: Level of Parallelism: 5\nSvt[info]: Number of PPCS 93\nSvt[info]: [asm level on system : up to avx2]\nSvt[info]: [asm level selected : up to avx2]\nSvt[info]: -------------------------------------------\nSvt[info]: SVT [config]: main profile\ttier (auto)\tlevel (auto)\nSvt[info]: SVT [config]: width / height / fps numerator / fps denominator \t\t: 1920 / 1080 / 50 / 1\nSvt[info]: SVT [config]: bit-depth / color format \t\t\t\t\t: 8 / YUV420\nSvt[info]: SVT [config]: preset / tune / pred struct \t\t\t\t\t: 4 / PSNR / random access\nSvt[info]: SVT [config]: gop size / mini-gop size / key-frame type \t\t\t: 321 / 16 / key frame\nSvt[info]: SVT [config]: BRC mode / target bitrate (kbps)\t\t\t\t: VBR / 1000 \nSvt[info]: SVT [config]: AQ mode / Variance Boost \t\t\t\t\t: 2 / 0\nSvt[info]: SVT [config]: sharpness / luminance-based QP bias \t\t\t\t: 0 / 0\nSvt[info]: SVT [config]: QP scale compress strength \t\t\t\t\t: 0\nSvt[info]: -------------------------------------------\nOutput #0, matroska, to 'C:\\Users\\Peter\\Desktop\\stuff\\MIUN\\quantitative_research\\video_compression\\compressed_videos\\BVI-HD\\av1\\1\\TreeTrunk_1920x1080_50fps_av1.mkv':\n  Metadata:\n    major_brand     : isom\n    minor_version   : 512\n    compatible_brands: isomiso2avc1mp41\n    encoder         : Lavf62.3.100\n  Stream #0:0(und): Video: av1 (AV01 / 0x31305641), yuv420p(tv, progressive), 1920x1080, q=2-31, 1000 kb/s, 50 fps, 1k tbn (default)\n    Metadata:\n      encoder         : Lavc62.11.100 libsvtav1\n      handler_name    : VideoHandler\n      vendor_id       : [0][0][0][0]\n    Side data:\n      cpb: bitrate max/min/avg: 0/0/1000000 buffer size: 1000000 vbv_delay: N/A\nframe=    0 fps=0.0 q=0.0 size=       0KiB time=N/A bitrate=N/A speed=N/A elapsed=0:00:01.75    \nframe=    0 fps=0.0 q=0.0 size=       0KiB time=N/A bitrate=N/A speed=N/A elapsed=0:00:02.52    \nframe=    0 fps=0.0 q=0.0 size=       0KiB time=N/A bitrate=N/A speed=N/A elapsed=0:00:03.23    \nframe=    0 fps=0.0 q=0.0 size=       0KiB time=N/A bitrate=N/A speed=N/A elapsed=0:00:03.85    \nframe=    0 fps=0.0 q=0.0 size=       0KiB time=N/A bitrate=N/A speed=N/A elapsed=0:00:04.58    \nframe=    0 fps=0.0 q=0.0 size=       0KiB time=N/A bitrate=N/A speed=N/A elapsed=0:00:05.25    \nframe=    0 fps=0.0 q=0.0 size=       0KiB time=N/A bitrate=N/A speed=N/A elapsed=0:00:05.80    \nframe=    1 fps=0.2 q=40.0 size=       1KiB time=00:00:00.00 bitrate=N/A speed=   0x elapsed=0:00:06.36    \nframe=    2 fps=0.3 q=63.0 size=       1KiB time=00:00:00.00 bitrate=N/A speed=   0x elapsed=0:00:06.93    \nframe=   11 fps=1.4 q=58.0 size=       1KiB time=00:00:00.16 bitrate=  35.6kbits/s speed=0.0209x elapsed=0:00:07.67    \nframe=   13 fps=1.5 q=57.0 size=       1KiB time=00:00:00.24 bitrate=  23.8kbits/s speed=0.0283x elapsed=0:00:08.48    \nframe=   14 fps=1.5 q=57.0 size=       1KiB time=00:00:00.26 bitrate=  21.9kbits/s speed=0.0286x elapsed=0:00:09.08    \nframe=   16 fps=1.6 q=57.0 size=       1KiB time=00:00:00.30 bitrate=  19.0kbits/s speed=0.0309x elapsed=0:00:09.71    \nframe=   21 fps=2.0 q=51.0 size=       1KiB time=00:00:00.40 bitrate=  14.3kbits/s speed=0.0389x elapsed=0:00:10.28    \nframe=   25 fps=2.3 q=49.0 size=       1KiB time=00:00:00.48 bitrate=  11.9kbits/s speed=0.0441x elapsed=0:00:10.87    \nframe=   28 fps=2.4 q=50.0 size=       1KiB time=00:00:00.54 bitrate=  10.6kbits/s speed=0.0471x elapsed=0:00:11.46    \nframe=   31 fps=2.6 q=50.0 size=       1KiB time=00:00:00.60 bitrate=   9.5kbits/s speed=0.05x elapsed=0:00:11.99    \nframe=   35 fps=2.8 q=45.0 size=       1KiB time=00:00:00.68 bitrate=   8.4kbits/s speed=0.0538x elapsed=0:00:12.62    \nframe=   38 fps=2.9 q=45.0 size=       1KiB time=00:00:00.74 bitrate=   7.7kbits/s speed=0.056x elapsed=0:00:13.20    \nframe=   43 fps=3.1 q=43.0 size=       1KiB time=00:00:00.82 bitrate=   7.0kbits/s speed=0.0592x elapsed=0:00:13.85    \nframe=   45 fps=3.1 q=43.0 size=       1KiB time=00:00:00.88 bitrate=   6.5kbits/s speed=0.0604x elapsed=0:00:14.57    \nframe=   46 fps=3.0 q=43.0 size=       1KiB time=00:00:00.90 bitrate=   6.3kbits/s speed=0.0595x elapsed=0:00:15.13    \nframe=   49 fps=3.1 q=39.0 size=       1KiB time=00:00:00.96 bitrate=   5.9kbits/s speed=0.0613x elapsed=0:00:15.65    \nframe=   53 fps=3.3 q=42.0 size=       1KiB time=00:00:01.04 bitrate=   5.5kbits/s speed=0.0643x elapsed=0:00:16.18    \nframe=   55 fps=3.3 q=43.0 size=       1KiB time=00:00:01.08 bitrate=   5.3kbits/s speed=0.0645x elapsed=0:00:16.73    \nframe=   59 fps=3.4 q=43.0 size=       1KiB time=00:00:01.16 bitrate=   4.9kbits/s speed=0.067x elapsed=0:00:17.30    \nframe=   64 fps=3.6 q=42.0 size=       1KiB time=00:00:01.24 bitrate=   4.6kbits/s speed=0.069x elapsed=0:00:17.97    \nframe=   69 fps=3.7 q=42.0 size=       1KiB time=00:00:01.34 bitrate=   4.3kbits/s speed=0.072x elapsed=0:00:18.61    \nframe=   73 fps=3.8 q=41.0 size=       1KiB time=00:00:01.42 bitrate=   4.0kbits/s speed=0.0737x elapsed=0:00:19.25    \nframe=   77 fps=3.9 q=42.0 size=       1KiB time=00:00:01.52 bitrate=   3.8kbits/s speed=0.0766x elapsed=0:00:19.85    \nframe=   81 fps=4.0 q=39.0 size=       1KiB time=00:00:01.58 bitrate=   3.6kbits/s speed=0.0774x elapsed=0:00:20.40    \nframe=   85 fps=4.0 q=42.0 size=       1KiB time=00:00:01.66 bitrate=   3.4kbits/s speed=0.079x elapsed=0:00:21.02    \nframe=   88 fps=4.1 q=43.0 size=       1KiB time=00:00:01.74 bitrate=   3.3kbits/s speed=0.0805x elapsed=0:00:21.60    \nframe=   93 fps=4.2 q=42.0 size=       1KiB time=00:00:01.82 bitrate=   3.1kbits/s speed=0.082x elapsed=0:00:22.19    \nframe=   97 fps=4.2 q=39.0 size=       1KiB time=00:00:01.90 bitrate=   3.0kbits/s speed=0.0832x elapsed=0:00:22.83    \nframe=  102 fps=4.3 q=45.0 size=       1KiB time=00:00:02.02 bitrate=   2.8kbits/s speed=0.0861x elapsed=0:00:23.47    \nframe=  106 fps=4.4 q=45.0 size=       1KiB time=00:00:02.10 bitrate=   2.7kbits/s speed=0.0871x elapsed=0:00:24.11    \nframe=  111 fps=4.5 q=44.0 size=       1KiB time=00:00:02.20 bitrate=   2.6kbits/s speed=0.0889x elapsed=0:00:24.74    \nframe=  115 fps=4.5 q=44.0 size=       1KiB time=00:00:02.28 bitrate=   2.5kbits/s speed=0.09x elapsed=0:00:25.32    \nframe=  119 fps=4.6 q=44.0 size=       1KiB time=00:00:02.36 bitrate=   2.4kbits/s speed=0.0911x elapsed=0:00:25.91    \nframe=  123 fps=4.6 q=45.0 size=       1KiB time=00:00:02.44 bitrate=   2.3kbits/s speed=0.0922x elapsed=0:00:26.45    \nframe=  128 fps=4.7 q=45.0 size=       1KiB time=00:00:02.54 bitrate=   2.2kbits/s speed=0.0942x elapsed=0:00:26.97    \nframe=  132 fps=4.8 q=45.0 size=       1KiB time=00:00:02.62 bitrate=   2.2kbits/s speed=0.0953x elapsed=0:00:27.49    \nframe=  137 fps=4.9 q=42.0 size=       1KiB time=00:00:02.68 bitrate=   2.1kbits/s speed=0.0957x elapsed=0:00:28.00    \nframe=  143 fps=5.0 q=45.0 size=       1KiB time=00:00:02.80 bitrate=   2.0kbits/s speed=0.0975x elapsed=0:00:28.70    \nframe=  147 fps=5.0 q=44.0 size=       1KiB time=00:00:02.92 bitrate=   2.0kbits/s speed=0.0995x elapsed=0:00:29.35    \nframe=  151 fps=5.0 q=44.0 size=       1KiB time=00:00:03.00 bitrate=   1.9kbits/s speed=0.0999x elapsed=0:00:30.03    \nframe=  157 fps=5.1 q=44.0 size=       1KiB time=00:00:03.12 bitrate=   1.8kbits/s speed=0.102x elapsed=0:00:30.54    \nframe=  161 fps=5.2 q=38.0 size=       1KiB time=00:00:03.20 bitrate=   1.8kbits/s speed=0.103x elapsed=0:00:31.06    \nframe=  167 fps=5.3 q=44.0 size=       1KiB time=00:00:03.32 bitrate=   1.7kbits/s speed=0.105x elapsed=0:00:31.59    \nframe=  173 fps=5.4 q=44.0 size=       1KiB time=00:00:03.44 bitrate=   1.7kbits/s speed=0.107x elapsed=0:00:32.13    \nframe=  177 fps=5.4 q=38.0 size=       1KiB time=00:00:03.52 bitrate=   1.6kbits/s speed=0.107x elapsed=0:00:32.76    \nframe=  179 fps=5.4 q=44.0 size=       1KiB time=00:00:03.56 bitrate=   1.6kbits/s speed=0.107x elapsed=0:00:33.36    \nframe=  183 fps=5.4 q=44.0 size=       1KiB time=00:00:03.64 bitrate=   1.6kbits/s speed=0.107x elapsed=0:00:33.94    \nframe=  185 fps=5.4 q=42.0 size=       1KiB time=00:00:03.68 bitrate=   1.6kbits/s speed=0.107x elapsed=0:00:34.51    \nframe=  189 fps=5.4 q=44.0 size=       1KiB time=00:00:03.76 bitrate=   1.5kbits/s speed=0.107x elapsed=0:00:35.04    \nframe=  193 fps=5.4 q=38.0 size=       1KiB time=00:00:03.84 bitrate=   1.5kbits/s speed=0.108x elapsed=0:00:35.62    \nframe=  193 fps=5.3 q=38.0 size=       1KiB time=00:00:03.84 bitrate=   1.5kbits/s speed=0.106x elapsed=0:00:36.33    \nframe=  197 fps=5.3 q=44.0 size=       1KiB time=00:00:03.92 bitrate=   1.5kbits/s speed=0.106x elapsed=0:00:36.97    \nframe=  201 fps=5.3 q=42.0 size=       1KiB time=00:00:04.00 bitrate=   1.4kbits/s speed=0.106x elapsed=0:00:37.57    \nframe=  205 fps=5.4 q=46.0 size=       1KiB time=00:00:04.08 bitrate=   1.4kbits/s speed=0.107x elapsed=0:00:38.17    \nframe=  211 fps=5.4 q=47.0 size=       1KiB time=00:00:04.16 bitrate=   1.4kbits/s speed=0.107x elapsed=0:00:38.77    \nframe=  217 fps=5.5 q=47.0 size=       1KiB time=00:00:04.32 bitrate=   1.3kbits/s speed=0.11x elapsed=0:00:39.44    \nframe=  221 fps=5.5 q=48.0 size=       1KiB time=00:00:04.40 bitrate=   1.3kbits/s speed=0.11x elapsed=0:00:40.06    \nframe=  225 fps=5.5 q=44.0 size=       1KiB time=00:00:04.48 bitrate=   1.3kbits/s speed=0.11x elapsed=0:00:40.63    \nframe=  233 fps=5.7 q=45.0 size=       1KiB time=00:00:04.64 bitrate=   1.2kbits/s speed=0.113x elapsed=0:00:41.18    \nframe=  247 fps=5.9 q=51.0 size=       1KiB time=00:00:04.92 bitrate=   1.2kbits/s speed=0.118x elapsed=0:00:41.71    \n[out#0/matroska @ 000001feea59f0c0] video:567KiB audio:0KiB subtitle:0KiB other streams:0KiB global headers:0KiB muxing overhead: 0.325787%\nframe=  250 fps=6.0 q=52.0 Lsize=     569KiB time=00:00:04.98 bitrate= 936.0kbits/s speed=0.119x elapsed=0:00:41.75    \n",
  "seconds": 42.62055063247681,
  "probe_out": {}
}